<?xml version="1.0" encoding="UTF-8"?>
<!-- Generator: Adobe Illustrator 27.7.0, SVG Export Plug-In . SVG Version: 6.00 Build 0)  -->
<svg version="1.1" xmlns="http://www.w3.org/2000/svg" xmlns:xlink="http://www.w3.org/1999/xlink" x="0px" y="0px" viewBox="0 0 300 80.6" style="enable-background:new 0 0 300 80.6;" xml:space="preserve">
<style type="text/css">
	.st0{fill:#003366;}
	.st1{fill:#F2F2F2;}
	.st2{fill:#E9E9E9;}
	.st3{fill:#8C8C8C;}
	.st4{fill:#6BD0E8;}
	.st5{fill:#61BCD8;}
	.st6{fill:#89E5F4;}
	.st7{fill:#FFFFFF;}
	.st8{fill:none;stroke:#FFFFFF;stroke-width:0.504;stroke-miterlimit:10;}
	.st9{fill:none;stroke:#FFFFFF;stroke-width:0.798;stroke-miterlimit:10;}
	.st10{fill:none;stroke:#FFFFFF;stroke-width:0.585;stroke-miterlimit:10;}
	.st11{fill:none;stroke:#FFFFFF;stroke-width:0.583;stroke-miterlimit:10;}
	.st12{fill:none;stroke:#FFFFFF;stroke-width:0.578;stroke-miterlimit:10;}
	.st13{fill:none;stroke:#FFFFFF;stroke-width:13.015;stroke-miterlimit:10;}
	.st14{fill:none;stroke:#FFFFFF;stroke-width:1.398;stroke-miterlimit:10;}
	.st15{fill:#F9C316;}
	.st16{fill:none;stroke:#FFFFFF;stroke-width:0.878;stroke-miterlimit:10;}
	.st17{fill:#FF8E51;}
	.st18{fill:none;stroke:#FF8E51;stroke-width:1.864;stroke-miterlimit:10;}
	.st19{fill:#9C8BEF;}
	.st20{fill:#FFFFFF;stroke:#FFFFFF;stroke-width:0.932;stroke-miterlimit:10;}
	.st21{fill:#B5D13F;}
	.st22{fill:none;stroke:#FFFFFF;stroke-width:0.932;stroke-miterlimit:10;}
	.st23{fill:none;stroke:#FFFFFF;stroke-width:0.778;stroke-miterlimit:10;}
	.st24{fill:#F7747E;}
	.st25{fill:none;stroke:#FFFFFF;stroke-width:0.385;stroke-miterlimit:10;}
	.st26{fill:none;stroke:#F2F2F2;stroke-miterlimit:10;}
	.st27{opacity:0.35;fill:#666F77;}
	.st28{opacity:0.25;fill:#FFFFFF;}
	.st29{opacity:0.4;fill:#FFFFFF;}
	.st30{fill:none;}
	.st31{fill:#FFFFFF;stroke:#FFFFFF;stroke-width:0.385;stroke-miterlimit:10;}
	.st32{opacity:0.25;fill:none;stroke:#666F77;stroke-miterlimit:10;}
	.st33{fill:#171D60;}
	.st34{fill:#E4363A;}
	.st35{fill:#1263A8;}
	.st36{fill-rule:evenodd;clip-rule:evenodd;fill:#E4363A;}
	.st37{fill:url(#SVGID_00000024720609506010109450000012022935583714651583_);}
	.st38{fill:#333333;}
	.st39{fill:#666F77;}
	.st40{fill-rule:evenodd;clip-rule:evenodd;fill:#2A4751;}
	.st41{opacity:0.1;}
	.st42{fill-rule:evenodd;clip-rule:evenodd;fill:url(#SVGID_00000016791992192101331640000011833199194730667953_);}
	.st43{fill-rule:evenodd;clip-rule:evenodd;fill:url(#SVGID_00000179637333662319323810000006082711186541166237_);}
	.st44{fill-rule:evenodd;clip-rule:evenodd;fill:url(#SVGID_00000062878670563348540730000000315616955971154849_);}
	.st45{fill-rule:evenodd;clip-rule:evenodd;fill:url(#SVGID_00000109022752893156746180000007038544403776093114_);}
	.st46{fill-rule:evenodd;clip-rule:evenodd;fill:url(#SVGID_00000114061461621707664720000013436331991722581424_);}
	.st47{fill-rule:evenodd;clip-rule:evenodd;fill:url(#SVGID_00000111190525589853915300000013785706074602291874_);}
	.st48{fill-rule:evenodd;clip-rule:evenodd;fill:url(#SVGID_00000070798063845814604440000004547645427825772164_);}
	.st49{fill-rule:evenodd;clip-rule:evenodd;fill:url(#SVGID_00000132787552264183613290000002444637161459669155_);}
	.st50{fill-rule:evenodd;clip-rule:evenodd;fill:url(#SVGID_00000124144188619837955480000009375420520942681524_);}
	.st51{fill-rule:evenodd;clip-rule:evenodd;fill:url(#SVGID_00000109021765375188754890000003374070113292645054_);}
	.st52{fill-rule:evenodd;clip-rule:evenodd;fill:url(#SVGID_00000158012634368146544250000015642935992920843144_);}
	.st53{fill-rule:evenodd;clip-rule:evenodd;fill:url(#SVGID_00000066478687211725635980000008173722308928337812_);}
	.st54{fill-rule:evenodd;clip-rule:evenodd;fill:url(#SVGID_00000020393014755173710710000015749782455398312355_);}
	.st55{fill-rule:evenodd;clip-rule:evenodd;fill:url(#SVGID_00000011713391307985395370000018132222165544020627_);}
	.st56{fill-rule:evenodd;clip-rule:evenodd;fill:url(#SVGID_00000111151780961603372150000013599553651383187637_);}
	.st57{fill-rule:evenodd;clip-rule:evenodd;fill:url(#SVGID_00000018936355217437068500000002780283198252103297_);}
	.st58{fill-rule:evenodd;clip-rule:evenodd;fill:url(#SVGID_00000126307264619799193230000012912591408677023924_);}
	.st59{fill-rule:evenodd;clip-rule:evenodd;fill:url(#SVGID_00000072991212221568117270000014249123735583617446_);}
	.st60{fill-rule:evenodd;clip-rule:evenodd;fill:url(#SVGID_00000098906707091559106480000010557814338111751866_);}
	.st61{fill-rule:evenodd;clip-rule:evenodd;fill:url(#SVGID_00000069365449353281406070000007199596362769490329_);}
	.st62{fill-rule:evenodd;clip-rule:evenodd;fill:url(#SVGID_00000170964057888695202800000000434987878348244630_);}
	.st63{fill-rule:evenodd;clip-rule:evenodd;fill:url(#SVGID_00000147220851803940738230000013614215176960958621_);}
	.st64{fill-rule:evenodd;clip-rule:evenodd;fill:url(#SVGID_00000048499626630684008120000013744007059180132539_);}
	.st65{fill-rule:evenodd;clip-rule:evenodd;fill:url(#SVGID_00000087397872499412666500000016895333137829680778_);}
	.st66{fill-rule:evenodd;clip-rule:evenodd;fill:url(#SVGID_00000168818477309787325370000015557232256668586662_);}
	.st67{fill-rule:evenodd;clip-rule:evenodd;fill:url(#SVGID_00000042737480144278833420000017866665102019263641_);}
	.st68{fill-rule:evenodd;clip-rule:evenodd;fill:url(#SVGID_00000174598613825497919450000014887812588992688271_);}
	.st69{fill-rule:evenodd;clip-rule:evenodd;fill:url(#SVGID_00000121995996508101084060000005528808806840648377_);}
	.st70{fill-rule:evenodd;clip-rule:evenodd;fill:url(#SVGID_00000007413837958128538380000007429158673931095737_);}
	.st71{fill-rule:evenodd;clip-rule:evenodd;fill:url(#SVGID_00000119101464139459792730000009082452626768762549_);}
	.st72{fill-rule:evenodd;clip-rule:evenodd;fill:url(#SVGID_00000053544489359236089160000009568535478816136590_);}
	.st73{fill-rule:evenodd;clip-rule:evenodd;fill:url(#SVGID_00000052076603709292253620000006145222003785004721_);}
	.st74{fill-rule:evenodd;clip-rule:evenodd;fill:url(#SVGID_00000110436314575589192130000018336559092078163343_);}
	.st75{fill-rule:evenodd;clip-rule:evenodd;fill:url(#SVGID_00000143611518518307463120000000817230229182917551_);}
	.st76{fill-rule:evenodd;clip-rule:evenodd;fill:url(#SVGID_00000054247637737826241710000004741383173964263808_);}
	.st77{fill-rule:evenodd;clip-rule:evenodd;fill:url(#SVGID_00000137126433471718488690000009168461755281480859_);}
	.st78{fill-rule:evenodd;clip-rule:evenodd;fill:url(#SVGID_00000052094193139078013450000015948673786258850732_);}
	.st79{fill-rule:evenodd;clip-rule:evenodd;fill:url(#SVGID_00000027568768544757316770000000324874719307405234_);}
	.st80{fill-rule:evenodd;clip-rule:evenodd;fill:url(#SVGID_00000020394661676568917500000003099391290754517896_);}
	.st81{fill-rule:evenodd;clip-rule:evenodd;fill:url(#SVGID_00000056389399855255512450000000540150886463667369_);}
	.st82{fill-rule:evenodd;clip-rule:evenodd;fill:url(#SVGID_00000129194016010055067700000016007827842148735156_);}
	.st83{fill-rule:evenodd;clip-rule:evenodd;fill:url(#SVGID_00000154399649011897835510000003219755698890361762_);}
	.st84{fill-rule:evenodd;clip-rule:evenodd;fill:url(#SVGID_00000036940103738142802340000001131197684638459829_);}
	.st85{fill-rule:evenodd;clip-rule:evenodd;fill:url(#SVGID_00000021816397910721528170000003609803382130356145_);}
	.st86{fill-rule:evenodd;clip-rule:evenodd;fill:url(#SVGID_00000012472765313345067620000005126091100163801270_);}
	.st87{fill-rule:evenodd;clip-rule:evenodd;fill:url(#SVGID_00000113350180093324297810000010085971175032021681_);}
	.st88{fill-rule:evenodd;clip-rule:evenodd;fill:url(#SVGID_00000054946544655084748030000001423592079036515984_);}
	.st89{fill-rule:evenodd;clip-rule:evenodd;fill:url(#SVGID_00000083768056271205632120000014086985085034752923_);}
	.st90{fill-rule:evenodd;clip-rule:evenodd;fill:url(#SVGID_00000109031669809902475810000012057960432286659205_);}
	.st91{fill-rule:evenodd;clip-rule:evenodd;fill:url(#SVGID_00000068651568902551773530000007629504427219415707_);}
	.st92{fill-rule:evenodd;clip-rule:evenodd;fill:url(#SVGID_00000046332072348895667150000005558856095063902636_);}
	.st93{fill-rule:evenodd;clip-rule:evenodd;fill:url(#SVGID_00000072989738066618543020000000968198638206031292_);}
	.st94{fill-rule:evenodd;clip-rule:evenodd;fill:url(#SVGID_00000004528611848514247350000007870136534296190855_);}
	.st95{fill-rule:evenodd;clip-rule:evenodd;fill:url(#SVGID_00000167367452670199394180000015501718423205373574_);}
	.st96{fill-rule:evenodd;clip-rule:evenodd;fill:url(#SVGID_00000062189172702575299570000004044905660451075251_);}
	.st97{fill-rule:evenodd;clip-rule:evenodd;fill:url(#SVGID_00000090269287459787921750000005763095401982729651_);}
	.st98{fill-rule:evenodd;clip-rule:evenodd;fill:url(#SVGID_00000016769170058568303320000008677541703206992045_);}
	.st99{fill-rule:evenodd;clip-rule:evenodd;fill:url(#SVGID_00000095313915780721872810000011384903794187017396_);}
	.st100{fill-rule:evenodd;clip-rule:evenodd;fill:url(#SVGID_00000005975416680074990370000018030301237822746303_);}
	.st101{fill-rule:evenodd;clip-rule:evenodd;fill:url(#SVGID_00000137812338932299406540000016433830514812360859_);}
	.st102{fill-rule:evenodd;clip-rule:evenodd;fill:url(#SVGID_00000176748669818441974510000011910967788458672562_);}
	.st103{fill-rule:evenodd;clip-rule:evenodd;fill:url(#SVGID_00000057146349664441913180000012603416715027469195_);}
	.st104{fill-rule:evenodd;clip-rule:evenodd;fill:url(#SVGID_00000152243233543464643950000010549967817902623629_);}
	.st105{fill-rule:evenodd;clip-rule:evenodd;fill:url(#SVGID_00000088827588043358247980000002566291463317720453_);}
	.st106{fill-rule:evenodd;clip-rule:evenodd;fill:url(#SVGID_00000124124912839378737010000004387993784921702824_);}
	.st107{fill-rule:evenodd;clip-rule:evenodd;fill:url(#SVGID_00000140717799372114249920000018001391420065762962_);}
	.st108{fill-rule:evenodd;clip-rule:evenodd;fill:url(#SVGID_00000160890476886403780200000009794015289260042149_);}
	.st109{fill-rule:evenodd;clip-rule:evenodd;fill:url(#SVGID_00000072987919682951066680000011710574286130870714_);}
	.st110{fill-rule:evenodd;clip-rule:evenodd;fill:url(#SVGID_00000038406170763550039640000017415302953012107174_);}
	.st111{fill-rule:evenodd;clip-rule:evenodd;fill:url(#SVGID_00000003100057551225030970000010060106630557755049_);}
	.st112{fill-rule:evenodd;clip-rule:evenodd;fill:url(#SVGID_00000056407655519567380340000004834059398448296599_);}
	.st113{fill-rule:evenodd;clip-rule:evenodd;fill:url(#SVGID_00000139294048577577666070000000974753113398685885_);}
	.st114{fill-rule:evenodd;clip-rule:evenodd;fill:url(#SVGID_00000000191710548522424520000006307704496310588581_);}
	.st115{fill-rule:evenodd;clip-rule:evenodd;fill:url(#SVGID_00000099650825285052000350000003438534724198246827_);}
	.st116{fill-rule:evenodd;clip-rule:evenodd;fill:url(#SVGID_00000120558961653972404720000008837946110692830614_);}
	.st117{fill-rule:evenodd;clip-rule:evenodd;fill:url(#SVGID_00000033356578192845142130000016150465418435280282_);}
	.st118{fill-rule:evenodd;clip-rule:evenodd;fill:url(#SVGID_00000047777832491306151490000005845633032941710777_);}
	.st119{fill-rule:evenodd;clip-rule:evenodd;fill:url(#SVGID_00000155129065070720109470000002973961590124764072_);}
	.st120{fill-rule:evenodd;clip-rule:evenodd;fill:url(#SVGID_00000172439399700757245620000000904004356260807055_);}
	.st121{fill-rule:evenodd;clip-rule:evenodd;fill:url(#SVGID_00000033347934108576005930000015214602797790351766_);}
	.st122{fill-rule:evenodd;clip-rule:evenodd;fill:#628497;}
	.st123{fill-rule:evenodd;clip-rule:evenodd;fill:#EA661F;}
	.st124{fill-rule:evenodd;clip-rule:evenodd;fill:#ED7C25;}
	.st125{fill:#628497;}
	.st126{fill:none;stroke:#EA661F;stroke-width:3;stroke-miterlimit:10;}
	.st127{opacity:8.000000e-02;}
	.st128{fill-rule:evenodd;clip-rule:evenodd;fill:#FFFFFF;}
	.st129{fill:#2A4751;}
	.st130{fill-rule:evenodd;clip-rule:evenodd;fill:none;stroke:#EA661F;stroke-width:3;stroke-miterlimit:10;}
	.st131{display:none;}
	.st132{display:inline;}
	.st133{opacity:0.5;fill:#00FFFF;}
	.st134{opacity:0.5;fill:#F680F9;}
</style>
<g id="Insumos_varios">
</g>
<g id="Main">
</g>
<g id="Header">
	<g>
		<g>
			<g>
				<g>
					<path class="st33" d="M0,35.8c1.5,1.6,3.6,4,9.2,4c5.8,0,8.6-2.4,8.6-5.3c0-7.8-15-2.7-15-8c0-2.2,2.5-3.1,5.9-3.1       c4.7,0,6.3,2.2,7,3l1.5-1.2c-1.2-1.7-4-3.6-8.5-3.6c-4.7,0-8.1,1.5-8.1,5.2c0,7,15,2.4,15,7.7c0,2.7-3.6,3.4-6.3,3.4       c-5.2,0-6.8-2.2-7.8-3.5L0,35.8z"/>
					<path class="st33" d="M38.8,22.1h-2.1v10.2c0,4-2.5,5.8-6.7,5.8c-4.2,0-6.8-1.8-6.8-5.8V22.1h-2.1v10.2c0,6.2,4.8,7.5,8.8,7.5       c4,0,8.8-1.3,8.8-7.5V22.1z"/>
					<path class="st33" d="M43.4,39.4h2.1V32h8c3.5,0,6.6-1,6.6-5c0-3.9-3.2-5-6.6-5H43.4V39.4z M45.5,23.9h7.4       c3.5,0,5.2,0.7,5.2,3.1c0,2.4-1.7,3.1-5.2,3.1h-7.4V23.9z"/>
					<polygon class="st33" points="63,39.4 78.6,39.4 78.6,37.5 65.1,37.5 65.1,31.3 76.2,31.3 76.2,29.5 65.1,29.5 65.1,23.9        78.3,23.9 78.3,22.1 63,22.1      "/>
					<path class="st33" d="M83.5,23.9h7.4c3,0,5.2,0.4,5.2,3c0,2.5-2.2,3-5.2,3h-7.4V23.9z M81.4,39.4h2.1v-7.6h6.8l5.5,7.6h2.6       l-5.7-7.7c2.1-0.1,5.4-1.1,5.4-4.8c0-4.2-4-4.8-6.7-4.8h-9.9V39.4z"/>
					<rect x="102.4" y="22.1" class="st33" width="2.1" height="17.3"/>
					<polygon class="st33" points="108.9,39.4 111,39.4 111,23.9 124.7,39.4 126.8,39.4 126.8,22.1 124.7,22.1 124.7,36.3        111.9,22.1 108.9,22.1      "/>
					<polygon class="st33" points="137.8,39.4 139.9,39.4 139.9,23.9 148.2,23.9 148.2,22.1 129.5,22.1 129.5,23.9 137.8,23.9             "/>
					<polygon class="st33" points="150.9,39.4 166.5,39.4 166.5,37.5 153,37.5 153,31.3 164,31.3 164,29.5 153,29.5 153,23.9        166.2,23.9 166.2,22.1 150.9,22.1      "/>
					<polygon class="st33" points="169.3,39.4 171.3,39.4 171.3,23.9 185,39.4 187.1,39.4 187.1,22.1 185,22.1 185,36.3 172.2,22.1        169.3,22.1      "/>
					<path class="st33" d="M191.6,39.4h7.8c4.5,0,9.9-1.7,9.9-8.8c0-5.7-3.9-8.5-9.2-8.5h-8.5V39.4z M193.6,23.9h6.4       c3.5,0,7.1,1.5,7.1,6.6c0,6.8-5.7,7-7.4,7h-6.1V23.9z"/>
					<polygon class="st33" points="212.6,39.4 228.2,39.4 228.2,37.5 214.6,37.5 214.6,31.3 225.7,31.3 225.7,29.5 214.6,29.5        214.6,23.9 227.9,23.9 227.9,22.1 212.6,22.1      "/>
					<polygon class="st33" points="230.9,39.4 232.9,39.4 232.9,23.9 246.7,39.4 248.8,39.4 248.8,22.1 246.7,22.1 246.7,36.3        233.9,22.1 230.9,22.1      "/>
					<path class="st33" d="M269.3,33.9c-1.4,2.6-3.8,4.1-7.2,4.1c-5.2,0-7.9-2.9-7.9-6.9c0-4.9,2.8-7.6,7.7-7.6c3.3,0,6,1.2,7.2,4       l1.8-0.8c-1.5-3.5-5.3-4.9-9-4.9c-5.8,0-9.8,3.2-9.8,9.1c0,5,3.1,9,9.8,9c4.2,0,7.4-1.4,9.2-5L269.3,33.9z"/>
					<rect x="274.2" y="22.1" class="st33" width="2.1" height="17.3"/>
					<path class="st33" d="M284.5,33l4.6-9.3l4.6,9.3H284.5z M279,39.4h2.3l2.2-4.5h11.1l2.2,4.5h2.3l-8.8-17.3h-2.6L279,39.4z"/>
					<path class="st33" d="M0.4,79.8h16c9.2,0,20.1-3.6,20.1-18c0-11.5-7.8-17.3-18.7-17.3H0.4V79.8z M4.7,48.3h13.1       c7.1,0,14.4,3.1,14.4,13.4C32.1,75.5,20.5,76,17,76H4.7V48.3z"/>
					<polygon class="st33" points="43.3,79.8 75.1,79.8 75.1,76 47.5,76 47.5,63.3 70,63.3 70,59.5 47.5,59.5 47.5,48.3 74.5,48.3        74.5,44.5 43.3,44.5      "/>
					<path class="st33" d="M95.2,72.5c3,3.3,7.2,8.1,18.7,8.1c11.9,0,17.6-4.9,17.6-10.8c0-15.8-30.6-5.6-30.6-16.3       c0-4.5,5-6.3,12-6.3c9.5,0,12.9,4.5,14.4,6.2l3.1-2.5c-2.4-3.4-8.1-7.2-17.3-7.2c-9.6,0-16.4,3.1-16.4,10.6       c0,14.3,30.6,4.9,30.6,15.6c0,5.5-7.4,7-12.8,7c-10.5,0-13.9-4.4-15.9-7.2L95.2,72.5z"/>
					<path class="st33" d="M145.7,66.8l9.4-19l9.4,19H145.7z M134.4,79.8h4.7l4.6-9.2h22.6l4.5,9.2h4.8l-18-35.3h-5.2L134.4,79.8z"/>
					<polygon class="st33" points="181,79.8 212.9,79.8 212.9,76 185.2,76 185.2,44.5 181,44.5      "/>
					<path class="st33" d="M254.7,44.5h-4.2v20.8c0,8.1-5.2,11.8-13.8,11.8c-8.6,0-13.8-3.7-13.8-11.8V44.5h-4.2v20.8       c0,12.7,9.9,15.4,18,15.4c8.1,0,18-2.6,18-15.4V44.5z"/>
					<path class="st33" d="M264,79.8h16c9.3,0,20.1-3.6,20.1-18c0-11.5-7.8-17.3-18.7-17.3H264V79.8z M268.2,48.3h13.1       c7.1,0,14.4,3.1,14.4,13.4c0,13.9-11.6,14.3-15.1,14.3h-12.4V48.3z"/>
				</g>
			</g>
		</g>
		<g>
			<g>
				<rect x="122.7" class="st34" width="177.3" height="10.6"/>
			</g>
			<g>
				<rect x="0.4" class="st35" width="122.3" height="10.6"/>
			</g>
		</g>
	</g>
</g>
<g id="Portadas_NTG">
</g>
<g id="Layout" class="st131">
</g>
</svg>